<?xml version="1.0" encoding="utf-8"?>
<!-- Uploaded to: SVG Repo, www.svgrepo.com, Generator: SVG Repo Mixer Tools -->
<!-- Credits: https://www.svgrepo.com/svg/407540/sun -->
<!-- License:
MIT License

Copyright (c) 2021 Twitter

Permission is hereby granted, free of charge, to any person obtaining a copy
of this software and associated documentation files (the "Software"), to deal
in the Software without restriction, including without limitation the rights
to use, copy, modify, merge, publish, distribute, sublicense, and/or sell
copies of the Software, and to permit persons to whom the Software is
furnished to do so, subject to the following conditions:

The above copyright notice and this permission notice shall be included in all
copies or substantial portions of the Software.

THE SOFTWARE IS PROVIDED "AS IS", WITHOUT WARRANTY OF ANY KIND, EXPRESS OR
IMPLIED, INCLUDING BUT NOT LIMITED TO THE WARRANTIES OF MERCHANTABILITY,
FITNESS FOR A PARTICULAR PURPOSE AND NONINFRINGEMENT. IN NO EVENT SHALL THE
AUTHORS OR COPYRIGHT HOLDERS BE LIABLE FOR ANY CLAIM, DAMAGES OR OTHER
LIABILITY, WHETHER IN AN ACTION OF CONTRACT, TORT OR OTHERWISE, ARISING FROM,
OUT OF OR IN CONNECTION WITH THE SOFTWARE OR THE USE OR OTHER DEALINGS IN THE
SOFTWARE.
-->
<svg width="800px" height="800px" viewBox="0 0 36 36" xmlns="http://www.w3.org/2000/svg" xmlns:xlink="http://www.w3.org/1999/xlink" aria-hidden="true" role="img" class="iconify iconify--twemoji" preserveAspectRatio="xMidYMid meet"><path fill="#FFAC33" d="M16 2s0-2 2-2s2 2 2 2v2s0 2-2 2s-2-2-2-2V2zm18 14s2 0 2 2s-2 2-2 2h-2s-2 0-2-2s2-2 2-2h2zM4 16s2 0 2 2s-2 2-2 2H2s-2 0-2-2s2-2 2-2h2zm5.121-8.707s1.414 1.414 0 2.828s-2.828 0-2.828 0L4.878 8.708s-1.414-1.414 0-2.829c1.415-1.414 2.829 0 2.829 0l1.414 1.414zm21 21s1.414 1.414 0 2.828s-2.828 0-2.828 0l-1.414-1.414s-1.414-1.414 0-2.828s2.828 0 2.828 0l1.414 1.414zm-.413-18.172s-1.414 1.414-2.828 0s0-2.828 0-2.828l1.414-1.414s1.414-1.414 2.828 0s0 2.828 0 2.828l-1.414 1.414zm-21 21s-1.414 1.414-2.828 0s0-2.828 0-2.828l1.414-1.414s1.414-1.414 2.828 0s0 2.828 0 2.828l-1.414 1.414zM16 32s0-2 2-2s2 2 2 2v2s0 2-2 2s-2-2-2-2v-2z"></path><circle fill="#FFAC33" cx="18" cy="18" r="10"></circle></svg>
